<?xml version="1.0" standalone="no"?>
<!DOCTYPE svg PUBLIC "-//W3C//DTD SVG 20010904//EN"
 "http://www.w3.org/TR/2001/REC-SVG-20010904/DTD/svg10.dtd">
<svg version="1.0" xmlns="http://www.w3.org/2000/svg"
 width="500.000000pt" height="500.000000pt" viewBox="0 0 500.000000 500.000000"
 preserveAspectRatio="xMidYMid meet">

    <!-- ダークモード -->
<style>
    path {
        fill: #222;
    }
    @media (prefers-color-scheme: dark) {
        path {
            fill: #fff;
        }
    }
</style>
<g transform="translate(0.000000,500.000000) scale(0.100000,-0.100000)" >
<path d="M2265 4989 c-287 -25 -622 -122 -897 -260 -608 -306 -1083 -880
-1273 -1539 -112 -389 -124 -818 -35 -1235 36 -167 115 -388 200 -560 130
-264 267 -454 484 -670 385 -383 868 -623 1411 -701 175 -25 531 -26 689 -1
396 63 716 184 1031 392 208 137 378 288 537 479 507 604 696 1386 523 2161
-157 702 -627 1316 -1265 1653 -434 229 -906 323 -1405 281z m467 -504 c160
-19 304 -52 449 -106 102 -37 303 -128 297 -135 -2 -1 -35 6 -75 16 -240 62
-552 45 -745 -39 l-48 -20 0 -337 0 -337 38 7 c96 17 160 17 231 2 124 -26
212 -93 265 -201 45 -93 56 -179 56 -454 0 -212 -3 -259 -19 -323 -48 -185
-149 -288 -316 -319 -57 -11 -183 -7 -232 7 l-23 6 0 -336 0 -337 48 -20 c26
-12 90 -32 142 -46 83 -23 116 -26 265 -27 183 0 269 11 400 51 442 137 693
518 746 1133 12 140 6 386 -12 535 -23 190 -69 360 -134 504 l-35 76 30 -35
c62 -72 173 -248 230 -364 387 -791 225 -1720 -407 -2326 -423 -407 -999 -607
-1576 -549 -152 15 -184 27 -74 28 l88 1 -2 1452 -1 1452 -84 365 c-46 202
-87 380 -92 396 l-8 30 -308 5 -309 5 109 52 c353 170 724 233 1106 188z
m-1422 -1991 l0 -1606 -42 33 c-154 120 -382 378 -480 544 -478 804 -351 1812
308 2457 93 91 194 177 207 178 4 0 7 -723 7 -1606z"/>
</g>
</svg>
