<?xml version="1.0" standalone="no"?>
<!DOCTYPE svg PUBLIC "-//W3C//DTD SVG 20010904//EN"
 "http://www.w3.org/TR/2001/REC-SVG-20010904/DTD/svg10.dtd">
<svg version="1.0" xmlns="http://www.w3.org/2000/svg"
 width="500.000000pt" height="500.000000pt" viewBox="0 0 500.000000 500.000000"
 preserveAspectRatio="xMidYMid meet">

<g transform="translate(0.000000,500.000000) scale(0.100000,-0.100000)"
>
<path d="M2915 4290 c-81 -12 -199 -44 -257 -69 l-48 -20 0 -337 0 -337 38 7
c96 17 160 17 231 2 168 -36 271 -147 307 -332 21 -110 20 -528 -2 -631 -39
-190 -152 -305 -327 -335 -59 -9 -176 -5 -224 8 l-23 6 0 -336 0 -337 48 -20
c26 -12 90 -32 142 -46 83 -22 116 -26 260 -27 180 0 281 12 405 51 164 52
292 130 405 249 121 128 200 263 258 444 102 321 119 769 42 1151 -61 299
-192 540 -377 689 -131 106 -272 170 -455 205 -98 19 -337 28 -423 15z"/>
<path d="M1310 2390 l0 -1850 505 0 506 0 -2 1452 -1 1452 -84 365 c-46 202
-87 380 -92 396 l-8 30 -412 3 -412 2 0 -1850z"/>
</g>
</svg>
